<svg width="123" height="11" viewBox="0 0 123 11" fill="none" xmlns="http://www.w3.org/2000/svg">
<path fill="currentColor" fill-rule="evenodd" clip-rule="evenodd" d="M42.8196 6.05334C32.6068 6.36419 22.7611 6.66386 12.8225 7.85631C8.94892 8.32106 5.31286 8.84064 2.34806 9.89928C1.56788 10.1779 0.709584 9.77123 0.431003 8.99105C0.152423 8.21087 0.559051 7.35257 1.33923 7.07399C4.66488 5.8865 8.62156 5.33882 12.4651 4.87767C22.5376 3.66916 32.4984 3.36604 42.6694 3.05652L43.1571 3.04168C54.476 2.69698 65.8078 2.37963 77.1404 2.38053C80.4399 2.38079 83.7402 2.43007 87.0278 2.47916C88.8165 2.50587 90.6015 2.53252 92.3805 2.55119C93.437 2.56228 94.612 2.54224 95.8338 2.5214C98.3489 2.47851 101.063 2.43223 103.35 2.6471C105.786 2.87582 108.308 2.92588 110.871 2.97677C112.056 3.00029 113.25 3.02399 114.448 3.06559C114.691 3.07402 114.94 3.08205 115.195 3.09024C117.123 3.15225 119.34 3.22352 121.164 3.5527C121.979 3.69979 122.521 4.47993 122.374 5.2952C122.227 6.11046 121.447 6.65213 120.631 6.50504C119.041 6.21806 117.067 6.15344 115.101 6.08906C114.848 6.08079 114.595 6.07252 114.344 6.06378C113.244 6.0256 112.105 6.00284 110.948 5.97972C108.328 5.92737 105.618 5.87322 103.07 5.63396C100.939 5.43384 98.546 5.47626 96.1389 5.51892C94.8673 5.54146 93.5918 5.56407 92.349 5.55102C90.541 5.53205 88.7429 5.50518 86.9488 5.47836C83.6778 5.42948 80.4202 5.38079 77.1401 5.38053C65.8583 5.37963 54.5678 5.69557 43.2484 6.04029L42.8196 6.05334Z" />
</svg>
