<svg width="86" height="5" viewBox="0 0 86 5" fill="none" xmlns="http://www.w3.org/2000/svg">
<path fill="currentColor" fill-rule="evenodd" clip-rule="evenodd" d="M29.9842 1.63335C22.7755 1.85275 15.7968 2.06515 8.74896 2.91076C6.01742 3.2385 3.38823 3.61089 1.22587 4.38301C0.965814 4.47587 0.679715 4.34032 0.586855 4.08026C0.493995 3.8202 0.629537 3.5341 0.889598 3.44124C3.17224 2.62618 5.90829 2.24442 8.62983 1.91789C15.7223 1.06692 22.7394 0.853369 29.9342 0.634413L30.268 0.624251C38.2664 0.380671 46.266 0.156689 54.2644 0.157325C56.5923 0.15751 58.9164 0.19222 61.2364 0.226869C62.5014 0.245762 63.7652 0.264636 65.0277 0.277886C65.8081 0.286076 66.6576 0.271454 67.5312 0.256416C69.2897 0.226146 71.1459 0.194195 72.7329 0.343237C74.4746 0.506812 76.2913 0.542946 78.1138 0.579192C78.946 0.595744 79.7795 0.61232 80.6074 0.641067C80.7811 0.647097 80.9583 0.652824 81.1382 0.658636C82.5075 0.702883 84.028 0.752014 85.2735 0.976717C85.5452 1.02575 85.7258 1.28579 85.6767 1.55755C85.6277 1.8293 85.3677 2.00986 85.0959 1.96083C83.9284 1.75019 82.4888 1.70328 81.1068 1.65825C80.9276 1.65241 80.7493 1.6466 80.5727 1.64046C79.7775 1.61286 78.9623 1.59659 78.1394 1.58018C76.2981 1.54344 74.4185 1.50595 72.6394 1.33886C71.1048 1.19473 69.3554 1.2254 67.6329 1.25559C66.7427 1.27119 65.8597 1.28667 65.0172 1.27783C63.745 1.26448 62.4769 1.24553 61.2101 1.2266C58.8956 1.19202 56.5857 1.15751 54.2643 1.15732C46.2828 1.15669 38.297 1.3802 30.2984 1.62379L29.9842 1.63335Z" />
</svg>
