<svg width="72" height="21" viewBox="0 0 72 21" fill="none" xmlns="http://www.w3.org/2000/svg">
	<path d="M22.4426 16.038C22.4426 17.072 21.9586 17.644 20.8586 17.644C20.6386 17.644 20.3306 17.6 20.3306 17.6V20.174C20.3306 20.174 20.7266 20.218 21.0786 20.218C23.5646 20.218 25.4786 19.206 25.4786 16.17V4.51H22.4426V16.038Z" fill="#34D399"/>
	<path d="M22.1786 1.738C22.1786 2.728 22.9486 3.476 23.9386 3.476C24.9506 3.476 25.7206 2.728 25.7206 1.738C25.7206 0.748001 24.9506 0 23.9386 0C22.9486 0 22.1786 0.748001 22.1786 1.738Z" fill="#34D399"/>
	<path d="M3.036 5.852C3.52 5.06 4.576 4.224 6.072 4.224C9.372 4.224 10.054 6.93 10.054 9.372V16.016H7.04V9.02C7.04 7.744 6.16 6.952 5.126 6.952C3.85 6.952 3.036 7.876 3.036 9.108V16.016H0V0.11H3.036V5.852Z" fill="#34D399"/>
	<path fill-rule="evenodd" clip-rule="evenodd" d="M16.6875 16.302C12.9915 16.302 10.6375 13.75 10.6375 10.296C10.6375 6.82 12.9915 4.224 16.2695 4.224C19.8335 4.224 21.8575 6.6 21.8575 10.362C21.8575 10.582 21.8575 10.802 21.8355 11.022H13.7395C13.8055 12.562 15.0375 13.662 16.7315 13.662C18.2935 13.662 19.1955 12.738 19.5255 12.254L21.5275 13.772C21.0875 14.586 19.5475 16.302 16.6875 16.302ZM16.3135 6.71C14.8835 6.71 13.9595 7.722 13.8275 9.042H18.7775C18.7115 7.634 17.6995 6.71 16.3135 6.71Z" fill="#34D399"/>
	<path d="M29.7481 5.852C30.2321 5.06 31.3321 4.224 32.8281 4.224C36.1061 4.224 36.8101 6.93 36.8101 9.372V16.016H33.7741V9.02C33.7741 7.744 32.8941 6.952 31.8601 6.952C30.6061 6.952 29.8141 7.876 29.8141 9.108V16.016H26.7781V4.51H29.7481V5.852Z" fill="#34D399"/>
	<path fill-rule="evenodd" clip-rule="evenodd" d="M55.991 10.296C55.991 13.75 58.345 16.302 62.041 16.302C64.901 16.302 66.441 14.586 66.881 13.772L64.879 12.254C64.549 12.738 63.647 13.662 62.085 13.662C60.391 13.662 59.159 12.562 59.093 11.022H67.189C67.211 10.8021 67.211 10.5822 67.211 10.3622C67.211 6.60023 65.187 4.224 61.623 4.224C58.345 4.224 55.991 6.82 55.991 10.296ZM59.181 9.042C59.313 7.722 60.237 6.71 61.667 6.71C63.053 6.71 64.065 7.634 64.131 9.042H59.181Z" fill="#34D399"/>
	<path fill-rule="evenodd" clip-rule="evenodd" d="M48.5071 6.59659C50.8441 5.9662 50.7503 8.33991 50.6665 10.4601C50.6513 10.8443 50.6364 11.2203 50.6364 11.5684C50.6364 14.7135 51.8516 16.2639 54.6133 16.2639C55.4529 16.2639 55.9169 16.1531 55.9169 16.1531V13.5396C55.6738 13.5618 55.5634 13.5618 55.3645 13.5618C54.1935 13.5618 53.6633 13.2074 53.6633 11.4798V7.00587H55.8285V4.52525H53.6633V2.08894H50.6585C50.6351 4.67285 49.344 4.57802 46.617 4.37771C45.7363 4.31302 44.7057 4.23732 43.5197 4.23732C40.0068 4.23732 37.3114 6.82868 37.3114 10.3503C37.3114 13.8497 39.9185 16.3968 43.5197 16.3968C47.1431 16.3968 49.7502 13.8497 49.7502 10.3503C49.7502 8.90834 49.2925 7.61683 48.5071 6.59659ZM43.5197 6.93942C41.686 6.93942 40.3603 8.35691 40.3603 10.3503C40.3603 12.3215 41.708 13.6947 43.5197 13.6947C45.3535 13.6947 46.7012 12.3215 46.7012 10.3503C46.7012 8.37906 45.3535 6.93942 43.5197 6.93942Z" fill="#34D399"/>
	<path d="M71.1621 14.454C71.1621 15.466 70.3481 16.302 69.2921 16.302C68.2361 16.302 67.4221 15.466 67.4221 14.454C67.4221 13.42 68.2361 12.562 69.2921 12.562C70.3481 12.562 71.1621 13.42 71.1621 14.454Z" fill="#FACC15"/>
</svg>