<svg width="65" height="28" viewBox="0 0 65 28" fill="none" xmlns="http://www.w3.org/2000/svg">
<path d="M1.716 20V9.08803H3.74L3.938 10.716H4.048C4.34134 10.188 4.796 9.74069 5.412 9.37403C6.028 9.00736 6.73934 8.82403 7.546 8.82403C8.88067 8.82403 9.88534 9.22736 10.56 10.034C11.2347 10.8407 11.572 12.0287 11.572 13.598V20H9.24V13.884C9.24 12.9747 9.04934 12.2707 8.668 11.772C8.28667 11.2734 7.68534 11.024 6.864 11.024C6.05734 11.024 5.38267 11.2954 4.84 11.838C4.312 12.3807 4.048 13.1654 4.048 14.192V20H1.716Z" fill="#34D399"/>
<path d="M18.6914 20.264C17.6501 20.264 16.7187 20.0294 15.8974 19.56C15.0761 19.0907 14.4307 18.4307 13.9614 17.58C13.4921 16.7147 13.2574 15.7027 13.2574 14.544C13.2574 13.3854 13.4921 12.3807 13.9614 11.53C14.4307 10.6647 15.0761 9.99736 15.8974 9.52803C16.7187 9.0587 17.6574 8.82403 18.7134 8.82403C19.7694 8.82403 20.7007 9.0587 21.5074 9.52803C22.3287 9.99736 22.9667 10.6647 23.4214 11.53C23.8907 12.3807 24.1254 13.3854 24.1254 14.544C24.1254 15.7027 23.8907 16.7147 23.4214 17.58C22.9521 18.4307 22.3067 19.0907 21.4854 19.56C20.6787 20.0294 19.7474 20.264 18.6914 20.264ZM18.6914 18.042C19.2487 18.042 19.7621 17.9174 20.2314 17.668C20.7007 17.4187 21.0747 17.0374 21.3534 16.524C21.6467 15.996 21.7934 15.336 21.7934 14.544C21.7934 13.7374 21.6467 13.0774 21.3534 12.564C21.0747 12.0507 20.7007 11.6694 20.2314 11.42C19.7767 11.1707 19.2707 11.046 18.7134 11.046C18.1561 11.046 17.6427 11.1707 17.1734 11.42C16.7041 11.6694 16.3227 12.0507 16.0294 12.564C15.7507 13.0774 15.6114 13.7374 15.6114 14.544C15.6114 15.7467 15.9121 16.634 16.5134 17.206C17.1294 17.7634 17.8554 18.042 18.6914 18.042Z" fill="#34D399"/>
<path d="M30.8708 20C29.8002 20 28.9495 19.7434 28.3188 19.23C27.6882 18.702 27.3728 17.7707 27.3728 16.436V11.068H24.6228V9.08803H26.2508C26.9988 9.08803 27.4388 8.72136 27.5708 7.98803L27.9008 6.22803H29.7048V9.08803H34.0168V11.068H29.7048V16.392C29.7048 16.964 29.8295 17.3674 30.0788 17.602C30.3428 17.822 30.7901 17.932 31.4208 17.932H33.9728V20H30.8708Z" fill="#34D399"/>
<path d="M40.8062 20.264C39.7502 20.264 38.8189 20.0294 38.0122 19.56C37.2056 19.076 36.5749 18.4087 36.1202 17.558C35.6656 16.7074 35.4382 15.7174 35.4382 14.588C35.4382 13.444 35.6582 12.4394 36.0982 11.574C36.5529 10.7087 37.1836 10.034 37.9902 9.55003C38.8116 9.06603 39.7576 8.82403 40.8282 8.82403C41.8842 8.82403 42.7936 9.06603 43.5562 9.55003C44.3189 10.0194 44.9056 10.65 45.3162 11.442C45.7416 12.234 45.9542 13.1067 45.9542 14.06C45.9542 14.2067 45.9542 14.368 45.9542 14.544C45.9542 14.7054 45.9469 14.8887 45.9322 15.094H37.7262C37.7996 16.106 38.1296 16.876 38.7162 17.404C39.3029 17.9174 39.9922 18.174 40.7842 18.174C41.4736 18.174 42.0162 18.0347 42.4122 17.756C42.8229 17.4627 43.1236 17.0667 43.3142 16.568H45.6682C45.4042 17.6094 44.8542 18.4894 44.0182 19.208C43.1822 19.912 42.1116 20.264 40.8062 20.264ZM40.8062 10.848C40.0876 10.848 39.4496 11.068 38.8922 11.508C38.3349 11.9334 37.9756 12.5347 37.8142 13.312H43.6222C43.5636 12.5787 43.2776 11.9847 42.7642 11.53C42.2509 11.0754 41.5982 10.848 40.8062 10.848Z" fill="#34D399"/>
<path d="M46.7596 20V17.976H49.4216V11.838C49.4216 11.354 49.187 11.112 48.7176 11.112H46.9796V9.08803H49.5976C50.199 9.08803 50.6903 9.26403 51.0716 9.61603C51.453 9.95336 51.6436 10.43 51.6436 11.046V11.31H51.7536C51.915 10.4887 52.2596 9.87269 52.7876 9.46203C53.3303 9.03669 54.115 8.82403 55.1416 8.82403H56.8356V11.288H54.4596C53.5943 11.288 52.927 11.5887 52.4576 12.19C51.9883 12.7914 51.7536 13.51 51.7536 14.346V17.976H55.1416V20H46.7596Z" fill="#34D399"/>
<path d="M62.657 20.132C62.1144 20.132 61.6524 19.956 61.271 19.604C60.8897 19.2374 60.699 18.7974 60.699 18.284C60.699 17.7707 60.8897 17.338 61.271 16.986C61.6524 16.634 62.1144 16.458 62.657 16.458C63.2144 16.458 63.6764 16.634 64.043 16.986C64.4244 17.338 64.615 17.7707 64.615 18.284C64.615 18.7974 64.4244 19.2374 64.043 19.604C63.6764 19.956 63.2144 20.132 62.657 20.132Z" fill="#34D399"/>
</svg>
