<svg width="60" height="18" viewBox="0 0 60 18" fill="none" xmlns="http://www.w3.org/2000/svg">
<path d="M7.79437 3.40248C6.11431 3.40248 4.87897 4.34365 4.33542 5.23529V3.72446H1V16.678H4.40954V8.90093C4.40954 7.51393 5.29898 6.47368 6.70727 6.47368C7.86849 6.47368 8.85676 7.36533 8.85676 8.80186V16.678H12.2663V9.19814C12.2663 6.44892 11.4757 3.40248 7.79437 3.40248Z" fill="#34D399"/>
<path d="M13.1204 10.2384C13.1204 14.1517 16.0358 17 20.063 17C24.115 17 27.0304 14.1517 27.0304 10.2384C27.0304 6.32508 24.0161 3.40248 20.063 3.40248C16.1347 3.40248 13.1204 6.30031 13.1204 10.2384ZM16.53 10.2384C16.53 8.00929 18.0124 6.42415 20.063 6.42415C22.1137 6.42415 23.6208 8.03406 23.6208 10.2384C23.6208 12.4427 22.1137 13.9783 20.063 13.9783C18.0371 13.9783 16.53 12.4427 16.53 10.2384Z" fill="#34D399"/>
<path d="M20.063 3.40248C20.063 3.40248 22.511 7.47883 24.3726 6.54574C28.9048 4.27409 28.2974 8.7613 28.2974 11.6006C28.2974 15.1176 29.6562 16.8514 32.7446 16.8514C33.6834 16.8514 34.2023 16.7276 34.2023 16.7276V13.805C33.9305 13.8297 33.807 13.8297 33.5846 13.8297C32.2751 13.8297 31.6822 13.4334 31.6822 11.5015V6.49845H34.1035V3.72446H31.6822V1H28.3221C28.2874 4.82276 25.4957 3.40248 20.063 3.40248Z" fill="#34D399"/>
<path d="M34.5484 10.2384C34.5484 14.1269 37.192 17 41.3427 17C44.5546 17 46.2841 15.0681 46.7782 14.1517L44.5299 12.4427C44.1593 12.9876 43.1463 14.0279 41.3922 14.0279C39.4897 14.0279 38.1061 12.7895 38.032 11.0557H47.1241C47.1488 10.8081 47.1488 10.5604 47.1488 10.3127C47.1488 6.0774 44.8758 3.40248 40.8733 3.40248C37.192 3.40248 34.5484 6.32508 34.5484 10.2384ZM38.1309 8.82663C38.2791 7.34056 39.3168 6.20124 40.9227 6.20124C42.4793 6.20124 43.6158 7.24149 43.6899 8.82663H38.1309Z" fill="#34D399"/>
<path d="M54.9462 3.40248C53.2414 3.40248 51.9566 4.31889 51.3884 5.60681V3.72446H48.053V16.678H51.4625V11.031C51.4625 8.45511 52.4014 6.86997 54.9462 6.86997V3.40248Z" fill="#34D399"/>
<path d="M56.8999 17C58.0858 17 59 16.0588 59 14.9195C59 13.7554 58.0858 12.7895 56.8999 12.7895C55.714 12.7895 54.7998 13.7554 54.7998 14.9195C54.7998 16.0588 55.714 17 56.8999 17Z" fill="#34D399"/>
</svg>
