<svg width="56" height="56" viewBox="0 0 56 56" fill="none" xmlns="http://www.w3.org/2000/svg">
<path d="M0.403008 30.5323C0.403008 40.7728 8.03212 48.2263 18.5706 48.2263C29.1738 48.2263 36.8029 40.7728 36.8029 30.5323C36.8029 20.2918 28.9152 12.6439 18.5706 12.6439C8.29073 12.6439 0.403008 20.227 0.403008 30.5323ZM9.32519 30.5323C9.32519 24.6991 13.2044 20.5511 18.5706 20.5511C23.9369 20.5511 27.8807 24.7639 27.8807 30.5323C27.8807 36.3007 23.9369 40.3191 18.5706 40.3191C13.2691 40.3191 9.32519 36.3007 9.32519 30.5323Z" fill="#34D399"/>
<path d="M18.5706 12.6439C18.5706 12.6439 24.9767 23.311 29.8481 20.8693C41.7079 14.9247 40.1184 26.667 40.1184 34.097C40.1184 43.3005 43.6744 47.8374 51.756 47.8374C54.2129 47.8374 55.5706 47.5133 55.5706 47.5133V39.8654C54.8594 39.9302 54.5361 39.9302 53.9543 39.9302C50.5276 39.9302 48.9759 38.8932 48.9759 33.8378V20.7455H55.312V13.4865H48.9759V6.35703H40.1831C40.0923 16.3605 32.7869 12.6439 18.5706 12.6439Z" fill="#34D399"/>
</svg>
