<svg width="56" height="56" viewBox="0 0 56 56" fill="none" xmlns="http://www.w3.org/2000/svg">
<path fill-rule="evenodd" clip-rule="evenodd" d="M33.625 19.4392C40.5597 17.5686 40.2813 24.6123 40.0327 30.9038C39.9876 32.0438 39.9436 33.1595 39.9436 34.1925C39.9436 43.5251 43.5494 48.1257 51.7445 48.1257C54.2358 48.1257 55.6126 47.7971 55.6126 47.7971V40.0418C54.8914 40.1076 54.5636 40.1076 53.9736 40.1076C50.4988 40.1076 48.9254 39.056 48.9254 33.9296V20.6537H55.3503V13.2927H48.9254V6.06326H40.0091C39.9396 13.7307 36.1085 13.4493 28.0165 12.8549C25.4029 12.663 22.3449 12.4384 18.8256 12.4384C8.40142 12.4384 0.403008 20.1279 0.403008 30.5778C0.403008 40.962 8.13918 48.5201 18.8256 48.5201C29.5775 48.5201 37.3137 40.962 37.3137 30.5778C37.3137 26.299 35.9557 22.4666 33.625 19.4392ZM18.8256 20.4565C13.384 20.4565 9.45039 24.6628 9.45039 30.5778C9.45039 36.4271 13.4496 40.5019 18.8256 40.5019C24.2671 40.5019 28.2663 36.4271 28.2663 30.5778C28.2663 24.7285 24.2671 20.4565 18.8256 20.4565Z" fill="#34D399"/>
</svg>