<svg xmlns="http://www.w3.org/2000/svg" width="20" height="20" fill="currentColor" viewBox="0 0 20 20">
  <path d="M10.287 8.307c.088.037.171.09.243.163l2.5 2.5a.75.75 0 11-1.06 1.06l-1.22-1.22V15a.75.75 0 01-1.5 0v-4.19l-1.22 1.22a.75.75 0 01-1.06-1.06l2.5-2.5M10.287 8.307a.748.748 0 00-.816.161"/>
  <path d="M.833 1.75a.75.75 0 00-.75.75v4.167c0 .414.336.75.75.75h.917V17.5c0 .414.336.75.75.75h15a.75.75 0 00.75-.75V7.417h.917a.75.75 0 00.75-.75V2.5a.75.75 0 00-.75-.75H.833zM16.75 7.417v9.333H3.25V7.417h13.5zm-15.167-1.5V3.25h16.834v2.667H1.583z"/>
</svg>