<svg width="20" height="20" viewBox="0 0 20 20" fill="none" xmlns="http://www.w3.org/2000/svg">
	<path stroke="currentColor" stroke-width="1.5" stroke-linecap="round" stroke-linejoin="round" d="M19.1667 2.5H0.833336V6.66667H19.1667V2.5Z" />
	<path fill="currentColor" fill-rule="evenodd" clip-rule="evenodd" d="M17.5 17.5V6.66666H2.5V17.5H17.5ZM8.33334 8.5C7.50491 8.5 6.83334 9.17157 6.83334 10C6.83334 10.8284 7.50491 11.5 8.33334 11.5H11.6667C12.4951 11.5 13.1667 10.8284 13.1667 10C13.1667 9.17157 12.4951 8.5 11.6667 8.5H8.33334Z" />
	<path fill="currentColor" d="M17.5 6.66666H18.25C18.25 6.25244 17.9142 5.91666 17.5 5.91666V6.66666ZM17.5 17.5V18.25C17.9142 18.25 18.25 17.9142 18.25 17.5H17.5ZM2.5 6.66666V5.91666C2.08579 5.91666 1.75 6.25244 1.75 6.66666H2.5ZM2.5 17.5H1.75C1.75 17.9142 2.08579 18.25 2.5 18.25V17.5ZM16.75 6.66666V17.5H18.25V6.66666H16.75ZM2.5 7.41666H17.5V5.91666H2.5V7.41666ZM3.25 17.5V6.66666H1.75V17.5H3.25ZM17.5 16.75H2.5V18.25H17.5V16.75ZM7.58334 10C7.58334 9.58579 7.91912 9.25 8.33334 9.25V7.75C7.09069 7.75 6.08334 8.75736 6.08334 10H7.58334ZM8.33334 10.75C7.91912 10.75 7.58334 10.4142 7.58334 10H6.08334C6.08334 11.2426 7.09069 12.25 8.33334 12.25V10.75ZM11.6667 10.75H8.33334V12.25H11.6667V10.75ZM12.4167 10C12.4167 10.4142 12.0809 10.75 11.6667 10.75V12.25C12.9093 12.25 13.9167 11.2426 13.9167 10H12.4167ZM11.6667 9.25C12.0809 9.25 12.4167 9.58579 12.4167 10H13.9167C13.9167 8.75736 12.9093 7.75 11.6667 7.75V9.25ZM8.33334 9.25H11.6667V7.75H8.33334V9.25Z" />
</svg>