<svg xmlns="http://www.w3.org/2000/svg" width="20" height="20" fill="currentColor" viewBox="0 0 20 20">
  <path d="M4.92 4.92c.11-.109.259-.17.413-.17h7.334a.75.75 0 000-1.5H5.333A2.083 2.083 0 003.25 5.333v9.334a2.083 2.083 0 002.083 2.083h9.334a2.083 2.083 0 002.083-2.083V10a.75.75 0 00-1.5 0v4.667a.583.583 0 01-.583.583H5.333a.583.583 0 01-.583-.583V5.333c0-.154.061-.303.17-.412z"/>
  <path d="M17.533 4.527a.75.75 0 00-1.066-1.054l-6.39 6.46-1.544-1.56a.75.75 0 10-1.066 1.054l2.077 2.1a.75.75 0 001.066 0l6.923-7z"/>
</svg>