<svg width="20" height="20" viewBox="0 0 20 20" fill="none" xmlns="http://www.w3.org/2000/svg">
	<path stroke="currentColor" stroke-width="1.5" stroke-linecap="round" stroke-linejoin="round" d="M18.3333 15.8333C18.3333 16.2754 18.1577 16.6993 17.8452 17.0118C17.5326 17.3244 17.1087 17.5 16.6667 17.5H3.33333C2.8913 17.5 2.46738 17.3244 2.15482 17.0118C1.84226 16.6993 1.66666 16.2754 1.66666 15.8333V4.16667C1.66666 3.72464 1.84226 3.30072 2.15482 2.98816C2.46738 2.67559 2.8913 2.5 3.33333 2.5H7.5L9.16666 5H16.6667C17.1087 5 17.5326 5.17559 17.8452 5.48816C18.1577 5.80072 18.3333 6.22464 18.3333 6.66667V15.8333Z"/>
	<path stroke="currentColor" stroke-width="1.5" stroke-linecap="round" stroke-linejoin="round" d="M7.5 12L10 14.5L12.5 12" />
	<path stroke="currentColor" stroke-width="1.5" stroke-linecap="round" stroke-linejoin="round" d="M10 14.5V8.50003" />
</svg>
