<svg xmlns="http://www.w3.org/2000/svg" width="20" height="20" fill="none" viewBox="0 0 20 20">
  <path fill="currentColor" d="M1.624 2.458a2.417 2.417 0 011.71-.708H7.5a.75.75 0 01.624.334L9.568 4.25h7.099a2.417 2.417 0 012.416 2.417v9.166a2.417 2.417 0 01-2.416 2.417H3.333a2.417 2.417 0 01-2.416-2.417V4.167c0-.641.254-1.256.707-1.71zM10 15.25a.747.747 0 00.53-.22l2.5-2.5a.75.75 0 00-1.06-1.06l-1.22 1.22V8.5a.75.75 0 00-1.5 0v4.19l-1.22-1.22a.75.75 0 10-1.06 1.06l2.5 2.5a.748.748 0 00.53.22z"/>
</svg>
