<svg xmlns="http://www.w3.org/2000/svg" width="20" height="20" fill="currentColor" viewBox="0 0 20 20">
  <path d="M2.685 2.685a.917.917 0 01.648-.268h7.5a.917.917 0 01.917.916v.834a.75.75 0 001.5 0v-.834A2.417 2.417 0 0010.833.917h-7.5A2.417 2.417 0 00.917 3.333v7.5a2.417 2.417 0 002.416 2.417h.834a.75.75 0 000-1.5h-.834a.917.917 0 01-.916-.917v-7.5c0-.243.096-.476.268-.648z"/>
  <path d="M9.167 6.75A2.417 2.417 0 006.75 9.167v7.5a2.417 2.417 0 002.417 2.416h7.5a2.417 2.417 0 002.416-2.416v-7.5a2.417 2.417 0 00-2.416-2.417h-7.5zM8.25 9.167c0-.507.41-.917.917-.917h7.5c.506 0 .916.41.916.917v7.5c0 .506-.41.916-.916.916h-7.5a.917.917 0 01-.917-.916v-7.5z"/>
</svg>