<svg width="20" height="20" viewBox="0 0 20 20" fill="none" xmlns="http://www.w3.org/2000/svg">
	<path stroke="currentColor" stroke-width="1.5" stroke-linecap="round" stroke-linejoin="round" d="M0.833336 0.833344L19.1667 19.1667" />
	<path fill="currentColor" stroke="currentColor" stroke-width="1.5" stroke-linecap="round" stroke-linejoin="round" d="M8.25 3.53333C8.82361 3.39907 9.41089 3.33195 10 3.33333C15.8333 3.33333 19.1667 10 19.1667 10C18.6608 10.9463 18.0575 11.8373 17.3667 12.6583L8.25 3.53333Z" />
	<path fill="currentColor" stroke="currentColor" stroke-width="1.5" stroke-linecap="round" stroke-linejoin="round" d="M1.97034 10.7026C1.78454 10.4149 1.64242 10.1741 1.54548 10.0027C2.43601 8.42976 3.6078 7.03439 5.00192 5.88578L7.3812 8.26507C7.26541 8.42976 7.16552 8.60567 7.08317 8.79049C6.91237 9.17382 6.82053 9.58762 6.81313 10.0072C6.80572 10.4268 6.88291 10.8436 7.04008 11.2327C7.19725 11.6218 7.43119 11.9753 7.72793 12.2721C8.02468 12.5688 8.37815 12.8027 8.76727 12.9599C9.15639 13.1171 9.57317 13.1943 9.99277 13.1869C10.4124 13.1795 10.8262 13.0876 11.2095 12.9168C11.3943 12.8345 11.5702 12.7346 11.7349 12.6188L13.9787 14.8625C12.7863 15.6077 11.4097 16.0176 9.99493 16.0417C7.33032 16.0397 5.19416 14.5155 3.68513 12.9059C2.93584 12.1066 2.35939 11.305 1.97034 10.7026Z" />
	<path stroke="currentColor" stroke-width="1.5" stroke-linecap="round" stroke-linejoin="round" d="M14.95 14.95C13.5255 16.0358 11.7909 16.6374 10 16.6667C4.16667 16.6667 0.833336 9.99999 0.833336 9.99999C1.86991 8.06823 3.30762 6.38049 5.05 5.04999" />
</svg>