<svg xmlns="http://www.w3.org/2000/svg" width="20" height="20" fill="none" viewBox="0 0 20 20">
  <path fill="currentColor" fill-rule="evenodd" d="M19.083 10a9.083 9.083 0 01-9.077 9.083h-.012A9.083 9.083 0 1119.084 10zm-16.63-.75h3.5a13.5 13.5 0 012.342-6.64 7.589 7.589 0 00-5.842 6.64zm0 1.5h3.5a13.5 13.5 0 002.342 6.64 7.589 7.589 0 01-5.842-6.64zm5.004 0A12 12 0 0010 17.176a12 12 0 002.543-6.426H7.457zm6.59 0a13.5 13.5 0 01-2.342 6.64 7.589 7.589 0 005.842-6.64h-3.5zm3.5-1.5a7.589 7.589 0 00-5.842-6.64 13.502 13.502 0 012.343 6.64h3.499zm-5.004 0A12 12 0 0010 2.824 12 12 0 007.457 9.25h5.086z" clip-rule="evenodd"/>
</svg>