<svg xmlns="http://www.w3.org/2000/svg" width="20" height="20" fill="currentColor" viewBox="0 0 20 20">
  <path d="M14.162.972a4.917 4.917 0 00-3.458 1.38l-.008.008-1.433 1.425a.75.75 0 101.057 1.064l1.43-1.421a3.417 3.417 0 014.831 4.83l-2.495 2.495a3.416 3.416 0 01-5.152-.369.75.75 0 10-1.201.899 4.917 4.917 0 007.414.53l2.5-2.5.01-.009A4.917 4.917 0 0014.161.972z"/>
  <path d="M8.681 6.758a4.917 4.917 0 00-3.828 1.428l-2.5 2.5-.01.01a4.917 4.917 0 006.953 6.952l.01-.01 1.424-1.424a.75.75 0 00-1.06-1.061l-1.42 1.42a3.417 3.417 0 01-4.832-4.83l2.496-2.496a3.417 3.417 0 015.152.369.75.75 0 101.201-.899 4.917 4.917 0 00-3.586-1.959zM16.5 13.25a.75.75 0 01.75.75v1.75H19a.75.75 0 010 1.5h-1.75V19a.75.75 0 01-1.5 0v-1.75H14a.75.75 0 010-1.5h1.75V14a.75.75 0 01.75-.75z"/>
</svg>