<svg xmlns="http://www.w3.org/2000/svg" width="20" height="20" fill="currentColor" viewBox="0 0 20 20">
  <path d="M4.04 4.725a.5.5 0 00-.5-.5h-.366a.5.5 0 00-.268.078l-.95.6a.405.405 0 00.432.685l.54-.338a.023.023 0 01.035.02v3.546a.5.5 0 00.501.5h.076a.5.5 0 00.5-.5V4.725zM1.62 15.248a.5.5 0 00.5.5h2.69a.44.44 0 000-.88H3.137a.024.024 0 01-.017-.042l.736-.72c1.046-.955 1.327-1.432 1.327-2.012 0-.882-.72-1.506-1.812-1.506-.88 0-1.533.434-1.735 1.145-.075.265.158.493.434.493h.02c.277 0 .479-.248.633-.478.132-.197.357-.307.64-.307.448 0 .781.278.781.725 0 .406-.249.684-.71 1.129l-1.653 1.53a.5.5 0 00-.16.366v.057zM8 4.25a.75.75 0 100 1.5h8.83a.75.75 0 000-1.5H8zM7.25 10A.75.75 0 018 9.25h8.83a.75.75 0 110 1.5H8a.75.75 0 01-.75-.75zM8 14.25a.75.75 0 000 1.5h8.83a.75.75 0 000-1.5H8z"/>
</svg>