<svg xmlns="http://www.w3.org/2000/svg" width="20" height="20" fill="none" viewBox="0 0 20 20">
  <path fill="currentColor" d="M4.743 1.501a.75.75 0 01.75-.75h9.014a.75.75 0 110 1.5H5.493a.75.75 0 01-.75-.75zM3.616 4.318a.75.75 0 01.75-.75h11.268a.75.75 0 010 1.5H4.366a.75.75 0 01-.75-.75zM1.362 8.635a2.25 2.25 0 012.25-2.25h12.776a2.25 2.25 0 012.25 2.25v3.571a.75.75 0 01-.22.53l-6.197 6.198a.75.75 0 01-.53.22H3.611a2.25 2.25 0 01-2.25-2.25V8.635zm15.465 3.571H13.19a1.5 1.5 0 00-1.5 1.5v3.637l5.137-5.137z"/>
</svg>
