<svg xmlns="http://www.w3.org/2000/svg" width="20" height="20" fill="none" viewBox="0 0 20 20">
  <path fill="currentColor" d="M4.717 1.5a.75.75 0 01.75-.75h9.066a.75.75 0 010 1.5H5.467a.75.75 0 01-.75-.75zM3.584 4.334a.75.75 0 01.75-.75h11.332a.75.75 0 110 1.5H4.334a.75.75 0 01-.75-.75zM3.567 6.417a2.25 2.25 0 00-2.25 2.25v8.332a2.25 2.25 0 002.25 2.25H11.7a.75.75 0 00.53-.22l6.233-6.232a.75.75 0 00.22-.53v-3.6a2.25 2.25 0 00-2.25-2.25H3.567zm-.75 2.25a.75.75 0 01.75-.75h12.866a.75.75 0 01.75.75v2.85H13.2a2.25 2.25 0 00-2.25 2.25v3.982H3.567a.75.75 0 01-.75-.75V8.667zm10.383 4.35h2.922l-3.672 3.672v-2.922a.75.75 0 01.75-.75z"/>
</svg>