<svg width="20" height="20" viewBox="0 0 20 20" fill="none" xmlns="http://www.w3.org/2000/svg">
	<path fill="currentColor" d="M15 12.6667H10H5C4.58798 12.6667 4.35279 12.1963 4.6 11.8667L6.8 8.93333C6.92982 8.76024 7 8.5497 7 8.33333V3C7 2.44772 7.44772 2 8 2H12C12.5523 2 13 2.44771 13 3V8.33333C13 8.5497 13.0702 8.76024 13.2 8.93333L15.4 11.8667C15.6472 12.1963 15.412 12.6667 15 12.6667Z" />
	<path stroke="currentColor" stroke-width="1.5" stroke-linecap="round" stroke-linejoin="round" d="M10 18V12.6667M10 12.6667H15C15.412 12.6667 15.6472 12.1963 15.4 11.8667L13.2 8.93333C13.0702 8.76024 13 8.5497 13 8.33333V3C13 2.44771 12.5523 2 12 2H8C7.44772 2 7 2.44772 7 3V8.33333C7 8.5497 6.92982 8.76024 6.8 8.93333L4.6 11.8667C4.35279 12.1963 4.58798 12.6667 5 12.6667H10Z" />
</svg>