<svg width="12" height="12" viewBox="0 0 12 12" fill="none" xmlns="http://www.w3.org/2000/svg">
	<path stroke="currentColor" stroke-width="1.5" stroke-linecap="round" stroke-linejoin="round" d="M5 6.49998C5.21473 6.78705 5.48868 7.02457 5.80328 7.19645C6.11787 7.36833 6.46575 7.47054 6.82333 7.49615C7.1809 7.52176 7.53979 7.47017 7.87567 7.34487C8.21155 7.21958 8.51656 7.02352 8.77 6.76998L10.27 5.26998C10.7254 4.79848 10.9774 4.16697 10.9717 3.51148C10.966 2.85599 10.7031 2.22896 10.2395 1.76544C9.77603 1.30192 9.14899 1.03899 8.4935 1.0333C7.83801 1.0276 7.20651 1.27959 6.735 1.73498L5.875 2.58998" />
	<path stroke="currentColor" stroke-width="1.5" stroke-linecap="round" stroke-linejoin="round" d="M6.99998 5.49999C6.78525 5.21293 6.5113 4.9754 6.1967 4.80352C5.88211 4.63164 5.53422 4.52943 5.17665 4.50382C4.81908 4.47822 4.46018 4.52981 4.1243 4.6551C3.78843 4.78039 3.48342 4.97646 3.22998 5.22999L1.72998 6.72999C1.27458 7.2015 1.0226 7.833 1.02829 8.48849C1.03399 9.14399 1.29691 9.77102 1.76043 10.2345C2.22395 10.6981 2.85098 10.961 3.50647 10.9667C4.16197 10.9724 4.79347 10.7204 5.26498 10.265L6.11998 9.40999" />
</svg>
